<?xml version="1.0" encoding="iso-8859-1"?>
<!-- Generator: Adobe Illustrator 18.0.0, SVG Export Plug-In . SVG Version: 6.00 Build 0)  -->
<!DOCTYPE svg PUBLIC "-//W3C//DTD SVG 1.1//EN" "http://www.w3.org/Graphics/SVG/1.1/DTD/svg11.dtd">
<svg version="1.1" id="Layer_1" xmlns="http://www.w3.org/2000/svg" xmlns:xlink="http://www.w3.org/1999/xlink" x="0px" y="0px"
	 width="48px" height="48px" viewBox="0 0 48 48" style="enable-background:new 0 0 48 48;" xml:space="preserve">
<path style="fill:#2962FF;" d="M42.164,17.126L30.874,5.835c-3.781-3.781-9.967-3.781-13.748,0L5.836,17.126
	c-3.781,3.781-3.781,9.967,0,13.748l11.291,11.291c3.781,3.781,9.967,3.781,13.748,0l11.291-11.291
	C45.945,27.093,45.945,20.907,42.164,17.126z M24,31c-3.866,0-7-3.134-7-7c0-3.866,3.134-7,7-7s7,3.134,7,7
	C31,27.866,27.866,31,24,31z"/>
</svg>